{
  "accessors": [
    {
      "bufferView": 0,
      "componentType": 5126,
      "count": 63880,
      "max": [
        0.141321003437042,
        0.101435996592045,
        0.100685000419617
      ],
      "min": [
        -0.141463994979858,
        -0.101421996951103,
        -0.100555002689362
      ],
      "type": "VEC3"
    },
    {
      "bufferView": 1,
      "componentType": 5126,
      "count": 63880,
      "type": "VEC3"
    },
    {
      "bufferView": 2,
      "componentType": 5126,
      "count": 63880,
      "type": "VEC2"
    },
    {
      "bufferView": 3,
      "componentType": 5123,
      "count": 300000,
      "type": "SCALAR"
    }
  ],
  "asset": {
    "generator": "MeshSmith mesh conversion tool",
    "version": "2.0"
  },
  "bufferViews": [
    {
      "buffer": 0,
      "byteLength": 766560,
      "target": 34962
    },
    {
      "buffer": 0,
      "byteLength": 766560,
      "byteOffset": 766560,
      "target": 34962
    },
    {
      "buffer": 0,
      "byteLength": 511040,
      "byteOffset": 1533120,
      "target": 34962
    },
    {
      "buffer": 0,
      "byteLength": 600000,
      "byteOffset": 2044160,
      "target": 34963
    }
  ],
  "buffers": [
    {
      "byteLength": 2644160,
      "uri": "usnm_74016-100k-2048.bin"
    }
  ],
  "images": [
    {
      "uri": "usnm_74016-100k-2048-diffuse.jpg"
    },
    {
      "uri": "usnm_74016-100k-2048-occlusion.jpg"
    },
    {
      "uri": "usnm_74016-100k-2048-normals.jpg"
    }
  ],
  "materials": [
    {
      "name": "default",
      "normalTexture": {
        "index": 2
      },
      "occlusionTexture": {
        "index": 1
      },
      "pbrMetallicRoughness": {
        "baseColorTexture": {
          "index": 0
        },
        "metallicFactor": 0.100000001490116,
        "roughnessFactor": 0.800000011920929
      }
    }
  ],
  "meshes": [
    {
      "primitives": [
        {
          "attributes": {
            "NORMAL": 1,
            "POSITION": 0,
            "TEXCOORD_0": 2
          },
          "indices": 3,
          "material": 0,
          "mode": 4
        }
      ]
    }
  ],
  "nodes": [
    {
      "mesh": 0
    }
  ],
  "scene": 0,
  "scenes": [
    {
      "nodes": [
        0
      ]
    }
  ],
  "textures": [
    {
      "source": 0
    },
    {
      "source": 1
    },
    {
      "source": 2
    }
  ]
}